<svg xmlns="http://www.w3.org/2000/svg" viewBox="0 0 640 420" role="img" aria-label="Blink Sticker Pack">
  <defs>
    <linearGradient id="bg" x1="0" y1="0" x2="1" y2="1">
      <stop offset="0%" stop-color="#d8fff5"/>
      <stop offset="100%" stop-color="#53b7a2"/>
    </linearGradient>
    <linearGradient id="holo" x1="0" y1="0" x2="1" y2="1">
      <stop offset="0%" stop-color="#fff"/>
      <stop offset="30%" stop-color="#b5f3ff"/>
      <stop offset="65%" stop-color="#ffd1f5"/>
      <stop offset="100%" stop-color="#fff3bf"/>
    </linearGradient>
  </defs>
  <rect width="640" height="420" fill="url(#bg)"/>
  <rect x="120" y="115" width="170" height="210" rx="24" transform="rotate(-10 205 220)" fill="url(#holo)" stroke="#ffffff" stroke-width="10"/>
  <rect x="250" y="95" width="170" height="210" rx="24" transform="rotate(4 335 200)" fill="url(#holo)" stroke="#ffffff" stroke-width="10"/>
  <rect x="370" y="120" width="170" height="210" rx="24" transform="rotate(14 455 225)" fill="url(#holo)" stroke="#ffffff" stroke-width="10"/>
  <circle cx="205" cy="220" r="40" fill="#13a78f"/>
  <polygon points="324,182 336,212 368,214 343,233 350,265 324,248 297,265 305,233 279,214 311,212" fill="#00a4ff"/>
  <path d="M442 255h28v-28h24v28h28v24h-28v28h-24v-28h-28z" fill="#ff7d45"/>
</svg>
